<svg id="my-svg" width="100%" xmlns="http://www.w3.org/2000/svg" xmlns:xlink="http://www.w3.org/1999/xlink" style="max-width: 1053.56px; background-color: transparent;" viewBox="-345.5625 -34.70000076293945 1053.5625 400.72900390625" role="graphics-document document" aria-roledescription="gitGraph"><style>#my-svg{font-family:Inter,sans-serif;font-size:16px;fill:#333;}@keyframes edge-animation-frame{from{stroke-dashoffset:0;}}@keyframes dash{to{stroke-dashoffset:0;}}#my-svg .edge-animation-slow{stroke-dasharray:9,5!important;stroke-dashoffset:900;animation:dash 50s linear infinite;stroke-linecap:round;}#my-svg .edge-animation-fast{stroke-dasharray:9,5!important;stroke-dashoffset:900;animation:dash 20s linear infinite;stroke-linecap:round;}#my-svg .error-icon{fill:#552222;}#my-svg .error-text{fill:#552222;stroke:#552222;}#my-svg .edge-thickness-normal{stroke-width:1px;}#my-svg .edge-thickness-thick{stroke-width:3.5px;}#my-svg .edge-pattern-solid{stroke-dasharray:0;}#my-svg .edge-thickness-invisible{stroke-width:0;fill:none;}#my-svg .edge-pattern-dashed{stroke-dasharray:3;}#my-svg .edge-pattern-dotted{stroke-dasharray:2;}#my-svg .marker{fill:#333333;stroke:#333333;}#my-svg .marker.cross{stroke:#333333;}#my-svg svg{font-family:Inter,sans-serif;font-size:16px;}#my-svg p{margin:0;}#my-svg .commit-id,#my-svg .commit-msg,#my-svg .branch-label{fill:lightgrey;color:lightgrey;font-family:'trebuchet ms',verdana,arial,sans-serif;font-family:var(--mermaid-font-family);}#my-svg .branch-label0{fill:#ffffff;}#my-svg .commit0{stroke:hsl(240, 100%, 46.2745098039%);fill:hsl(240, 100%, 46.2745098039%);}#my-svg .commit-highlight0{stroke:hsl(60, 100%, 3.7254901961%);fill:hsl(60, 100%, 3.7254901961%);}#my-svg .label0{fill:hsl(240, 100%, 46.2745098039%);}#my-svg .arrow0{stroke:hsl(240, 100%, 46.2745098039%);}#my-svg .branch-label1{fill:black;}#my-svg .commit1{stroke:hsl(60, 100%, 43.5294117647%);fill:hsl(60, 100%, 43.5294117647%);}#my-svg .commit-highlight1{stroke:rgb(0, 0, 160.5);fill:rgb(0, 0, 160.5);}#my-svg .label1{fill:hsl(60, 100%, 43.5294117647%);}#my-svg .arrow1{stroke:hsl(60, 100%, 43.5294117647%);}#my-svg .branch-label2{fill:black;}#my-svg .commit2{stroke:hsl(80, 100%, 46.2745098039%);fill:hsl(80, 100%, 46.2745098039%);}#my-svg .commit-highlight2{stroke:rgb(48.8333333334, 0, 146.5000000001);fill:rgb(48.8333333334, 0, 146.5000000001);}#my-svg .label2{fill:hsl(80, 100%, 46.2745098039%);}#my-svg .arrow2{stroke:hsl(80, 100%, 46.2745098039%);}#my-svg .branch-label3{fill:#ffffff;}#my-svg .commit3{stroke:hsl(210, 100%, 46.2745098039%);fill:hsl(210, 100%, 46.2745098039%);}#my-svg .commit-highlight3{stroke:rgb(146.5000000001, 73.2500000001, 0);fill:rgb(146.5000000001, 73.2500000001, 0);}#my-svg .label3{fill:hsl(210, 100%, 46.2745098039%);}#my-svg .arrow3{stroke:hsl(210, 100%, 46.2745098039%);}#my-svg .branch-label4{fill:black;}#my-svg .commit4{stroke:hsl(180, 100%, 46.2745098039%);fill:hsl(180, 100%, 46.2745098039%);}#my-svg .commit-highlight4{stroke:rgb(146.5000000001, 0, 0);fill:rgb(146.5000000001, 0, 0);}#my-svg .label4{fill:hsl(180, 100%, 46.2745098039%);}#my-svg .arrow4{stroke:hsl(180, 100%, 46.2745098039%);}#my-svg .branch-label5{fill:black;}#my-svg .commit5{stroke:hsl(150, 100%, 46.2745098039%);fill:hsl(150, 100%, 46.2745098039%);}#my-svg .commit-highlight5{stroke:rgb(146.5000000001, 0, 73.2500000001);fill:rgb(146.5000000001, 0, 73.2500000001);}#my-svg .label5{fill:hsl(150, 100%, 46.2745098039%);}#my-svg .arrow5{stroke:hsl(150, 100%, 46.2745098039%);}#my-svg .branch-label6{fill:black;}#my-svg .commit6{stroke:hsl(300, 100%, 46.2745098039%);fill:hsl(300, 100%, 46.2745098039%);}#my-svg .commit-highlight6{stroke:rgb(0, 146.5000000001, 0);fill:rgb(0, 146.5000000001, 0);}#my-svg .label6{fill:hsl(300, 100%, 46.2745098039%);}#my-svg .arrow6{stroke:hsl(300, 100%, 46.2745098039%);}#my-svg .branch-label7{fill:black;}#my-svg .commit7{stroke:hsl(0, 100%, 46.2745098039%);fill:hsl(0, 100%, 46.2745098039%);}#my-svg .commit-highlight7{stroke:rgb(0, 146.5000000001, 146.5000000001);fill:rgb(0, 146.5000000001, 146.5000000001);}#my-svg .label7{fill:hsl(0, 100%, 46.2745098039%);}#my-svg .arrow7{stroke:hsl(0, 100%, 46.2745098039%);}#my-svg .branch{stroke-width:1;stroke:#333333;stroke-dasharray:2;}#my-svg .commit-label{font-size:10px;fill:#000021;}#my-svg .commit-label-bkg{font-size:10px;fill:#ffffde;opacity:0.5;}#my-svg .tag-label{font-size:10px;fill:#131300;}#my-svg .tag-label-bkg{fill:#ECECFF;stroke:hsl(240, 60%, 86.2745098039%);}#my-svg .tag-hole{fill:#333;}#my-svg .commit-merge{stroke:#ECECFF;fill:#ECECFF;}#my-svg .commit-reverse{stroke:#ECECFF;fill:#ECECFF;stroke-width:3;}#my-svg .commit-highlight-inner{stroke:#ECECFF;fill:#ECECFF;}#my-svg .arrow{stroke-width:8;stroke-linecap:round;fill:none;}#my-svg .gitTitleText{text-anchor:middle;font-size:18px;fill:#333;}#my-svg :root{--mermaid-font-family:"trebuchet ms",verdana,arial,sans-serif;}</style><g/><g class="commit-bullets"/><g class="commit-labels"/><g><line x1="0" y1="0" x2="700" y2="0" class="branch branch0"/><rect class="branchLabelBkg label0" rx="4" ry="4" x="-68.6875" y="-0.5" width="52.6875" height="21" transform="translate(-19, -8.5)"/><g class="branchLabel"><g class="label branch-label0" transform="translate(-78.6875, -9.5)"><text><tspan xml:space="preserve" dy="1em" x="0" class="row">main</tspan></text></g></g><line x1="0" y1="90" x2="700" y2="90" class="branch branch1"/><rect class="branchLabelBkg label1" rx="4" ry="4" x="-274.140625" y="-0.5" width="258.140625" height="21" transform="translate(-19, 81.5)"/><g class="branchLabel"><g class="label branch-label1" transform="translate(-284.140625, 80.5)"><text><tspan xml:space="preserve" dy="1em" x="0" class="row">feature/admin-courses-dashboard</tspan></text></g></g><line x1="0" y1="180" x2="700" y2="180" class="branch branch2"/><rect class="branchLabelBkg label2" rx="4" ry="4" x="-318.5625" y="-0.5" width="302.5625" height="21" transform="translate(-19, 171.5)"/><g class="branchLabel"><g class="label branch-label2" transform="translate(-328.5625, 170.5)"><text><tspan xml:space="preserve" dy="1em" x="0" class="row">feature/courses-navigation-for-members</tspan></text></g></g><line x1="0" y1="270" x2="700" y2="270" class="branch branch3"/><rect class="branchLabelBkg label3" rx="4" ry="4" x="-250.25" y="-0.5" width="234.25" height="21" transform="translate(-19, 261.5)"/><g class="branchLabel"><g class="label branch-label3" transform="translate(-260.25, 260.5)"><text><tspan xml:space="preserve" dy="1em" x="0" class="row">feature/code-execution-judge0</tspan></text></g></g></g><g class="commit-arrows"><path d="M 10 0 L 60 0" class="arrow arrow0"/><path d="M 60 0 L 60 70 A 20 20, 0, 0, 0, 80 90 L 110 90" class="arrow arrow1"/><path d="M 60 0 L 160 0" class="arrow arrow0"/><path d="M 110 90 L 140 90 A 20 20, 0, 0, 0, 160 70 L 160 0" class="arrow arrow1"/><path d="M 160 0 L 210 0" class="arrow arrow0"/><path d="M 210 0 L 210 160 A 20 20, 0, 0, 0, 230 180 L 260 180" class="arrow arrow2"/><path d="M 210 0 L 310 0" class="arrow arrow0"/><path d="M 260 180 L 290 180 A 20 20, 0, 0, 0, 310 160 L 310 0" class="arrow arrow2"/><path d="M 310 0 L 360 0" class="arrow arrow0"/><path d="M 360 0 L 410 0" class="arrow arrow0"/><path d="M 410 0 L 410 250 A 20 20, 0, 0, 0, 430 270 L 460 270" class="arrow arrow3"/><path d="M 410 0 L 510 0" class="arrow arrow0"/><path d="M 460 270 L 490 270 A 20 20, 0, 0, 0, 510 250 L 510 0" class="arrow arrow3"/><path d="M 510 0 L 560 0" class="arrow arrow0"/><path d="M 560 0 L 610 0" class="arrow arrow0"/><path d="M 610 0 L 660 0" class="arrow arrow0"/></g><g class="commit-bullets"><circle cx="10" cy="0" r="10" class="commit 284b5b4: Initial commit commit0"/><circle cx="60" cy="0" r="10" class="commit 438fb11: editor config commit0"/><circle cx="110" cy="90" r="10" class="commit ec32fdb: Add LMS admin panel commit1"/><circle cx="160" cy="0" r="9" class="commit 3-bfb0bed commit0"/><circle cx="160" cy="0" r="6" class="commit commit-merge 3-bfb0bed commit0"/><circle cx="210" cy="0" r="10" class="commit 5108a12: Add CourseSeeder commit0"/><circle cx="260" cy="180" r="10" class="commit 60d7384: Add student LMS + Judge0 commit2"/><circle cx="310" cy="0" r="9" class="commit 6-9e40e56 commit0"/><circle cx="310" cy="0" r="6" class="commit commit-merge 6-9e40e56 commit0"/><circle cx="360" cy="0" r="10" class="commit b56b7f7: Add markdown &amp; quiz commit0"/><circle cx="410" cy="0" r="10" class="commit ac50ff5: Dashboard with timeline commit0"/><circle cx="460" cy="270" r="10" class="commit Amélioration Judge0 commit3"/><circle cx="510" cy="0" r="9" class="commit 10-fcab1ef commit0"/><circle cx="510" cy="0" r="6" class="commit commit-merge 10-fcab1ef commit0"/><circle cx="560" cy="0" r="10" class="commit 5738bb1: JUnit 5 support commit0"/><circle cx="610" cy="0" r="10" class="commit 7dff41a: JetBrains Mono font commit0"/><rect x="650" y="-10" width="20" height="20" class="commit 117d3b1: Mobile timeline commit-highlight0 commit-highlight-outer"/><rect x="654" y="-6" width="12" height="12" class="commit 117d3b1: Mobile timeline commit0 commit-highlight-inner"/></g><g class="commit-labels"><g transform="translate(-50.460410156250006, 45.03826171875) rotate(-45, 0, 0)"><rect class="commit-label-bkg" x="-43.52685546875" y="13.5" width="107.0537109375" height="15"/><text x="-41.52685546875" y="25" class="commit-label">284b5b4: Initial commit</text></g><g transform="translate(-47.5721875, 42.4540625) rotate(-45, 50, 0)"><rect class="commit-label-bkg" x="10.2734375" y="13.5" width="99.453125" height="15"/><text x="12.2734375" y="25" class="commit-label">438fb11: editor config</text></g><g transform="translate(-64.11406249999999, 57.2546875) rotate(-45, 100, 90)"><rect class="commit-label-bkg" x="38.5078125" y="103.5" width="142.984375" height="15"/><text x="40.5078125" y="115" class="commit-label">ec32fdb: Add LMS admin panel</text></g><polygon class="tag-label-bkg" points="133.88427734375,-17.2  &#10;      133.88427734375,-21.2&#10;      141.88427734375,-26.7&#10;      178.11572265625,-26.7&#10;      178.11572265625,-11.7&#10;      141.88427734375,-11.7"/><circle cy="-19.2" cx="137.88427734375" r="1.5" class="tag-hole"/><text y="-16" class="tag-label" x="145.88427734375">PR #1</text><g transform="translate(-60.57048828124999, 54.08412109375) rotate(-45, 200, 0)"><rect class="commit-label-bkg" x="143.17041015625" y="13.5" width="133.6591796875" height="15"/><text x="145.17041015625" y="25" class="commit-label">5108a12: Add CourseSeeder</text></g><g transform="translate(-74.11095703125, 66.19927734375) rotate(-45, 250, 180)"><rect class="commit-label-bkg" x="175.35400390625" y="193.5" width="169.2919921875" height="15"/><text x="177.35400390625" y="205" class="commit-label">60d7384: Add student LMS + Judge0</text></g><polygon class="tag-label-bkg" points="283.88427734375,-17.2  &#10;      283.88427734375,-21.2&#10;      291.88427734375,-26.7&#10;      328.11572265625,-26.7&#10;      328.11572265625,-11.7&#10;      291.88427734375,-11.7"/><circle cy="-19.2" cx="287.88427734375" r="1.5" class="tag-hole"/><text y="-16" class="tag-label" x="295.88427734375">PR #2</text><g transform="translate(-63.90625, 57.068749999999994) rotate(-45, 350, 0)"><rect class="commit-label-bkg" x="288.78125" y="13.5" width="142.4375" height="15"/><text x="290.78125" y="25" class="commit-label">b56b7f7: Add markdown &amp; quiz</text></g><g transform="translate(-66.52765625, 59.41421875) rotate(-45, 400, 0)"><rect class="commit-label-bkg" x="335.33203125" y="13.5" width="149.3359375" height="15"/><text x="337.33203125" y="25" class="commit-label">ac50ff5: Dashboard with timeline</text></g><g transform="translate(-46.110078125, 41.145859375) rotate(-45, 450, 270)"><rect class="commit-label-bkg" x="412.197265625" y="283.5" width="95.60546875" height="15"/><text x="414.197265625" y="295" class="commit-label">Amélioration Judge0</text></g><polygon class="tag-label-bkg" points="483.88427734375,-17.2  &#10;      483.88427734375,-21.2&#10;      491.88427734375,-26.7&#10;      528.11572265625,-26.7&#10;      528.11572265625,-11.7&#10;      491.88427734375,-11.7"/><circle cy="-19.2" cx="487.88427734375" r="1.5" class="tag-hole"/><text y="-16" class="tag-label" x="495.88427734375">PR #3</text><g transform="translate(-53.846640625000006, 48.068046875) rotate(-45, 550, 0)"><rect class="commit-label-bkg" x="502.017578125" y="13.5" width="115.96484375" height="15"/><text x="504.017578125" y="25" class="commit-label">5738bb1: JUnit 5 support</text></g><g transform="translate(-59.901035156249996, 53.48513671875) rotate(-45, 600, 0)"><rect class="commit-label-bkg" x="544.05126953125" y="13.5" width="131.8974609375" height="15"/><text x="546.05126953125" y="25" class="commit-label">7dff41a: JetBrains Mono font</text></g><g transform="translate(-53.43361328125, 47.69849609375) rotate(-45, 650, 0)"><rect class="commit-label-bkg" x="602.56103515625" y="13.5" width="114.8779296875" height="15"/><text x="604.56103515625" y="25" class="commit-label">117d3b1: Mobile timeline</text></g></g></svg>